<?xml version="1.0" encoding="UTF-8"?>
<svg xmlns="http://www.w3.org/2000/svg" xmlns:xlink="http://www.w3.org/1999/xlink" width="200px" height="200px" viewBox="0 0 200 200" version="1.1">
<g id="surface1">
<rect x="0" y="0" width="200" height="200" style="fill:rgb(92.54902%,94.117647%,94.509804%);fill-opacity:1;stroke:none;"/>
<path style=" stroke:none;fill-rule:nonzero;fill:rgb(16.470588%,13.72549%,16.862745%);fill-opacity:1;" d="M 84.355469 36.34375 L 75.640625 36.027344 L 60.414062 44.425781 L 48.234375 63.640625 L 45.714844 88.949219 L 46.03125 95.984375 L 44.769531 107.21875 L 47.921875 115.828125 L 46.34375 124.4375 L 47.921875 130.527344 L 47.605469 137.246094 L 50.125 144.28125 L 47.921875 149.113281 L 50.441406 155.203125 L 48.863281 163.183594 L 55.585938 173.683594 L 63.878906 173.367188 L 68.710938 168.539062 L 69.65625 162.132812 L 67.765625 158.351562 L 71.230469 151.632812 L 70.285156 143.96875 L 67.765625 140.1875 L 71.230469 134.726562 L 69.65625 124.4375 L 84.039062 91.152344 Z M 106.195312 31.09375 L 124.78125 36.027344 L 140.003906 44.425781 L 152.183594 63.640625 L 154.703125 88.949219 L 154.390625 95.984375 L 155.648438 107.21875 L 152.394531 115.828125 L 153.96875 124.4375 L 152.394531 130.527344 L 152.710938 137.246094 L 150.191406 144.28125 L 152.394531 149.113281 L 149.875 155.203125 L 151.449219 163.183594 L 144.730469 173.683594 L 136.433594 173.367188 L 131.605469 168.539062 L 130.660156 162.132812 L 132.550781 158.351562 L 129.085938 151.632812 L 130.03125 143.96875 L 132.550781 140.1875 L 129.085938 134.726562 L 130.660156 124.4375 L 116.273438 91.152344 Z M 106.195312 31.09375 "/>
<path style=" stroke:none;fill-rule:nonzero;fill:rgb(10.588235%,7.843137%,10.980392%);fill-opacity:1;" d="M 56.949219 63.539062 L 48.761719 87.164062 L 46.238281 102.597656 L 53.695312 122.546875 L 63.25 134.832031 C 63.25 134.832031 63.984375 140.292969 63.984375 141.238281 C 63.984375 142.183594 61.253906 145.753906 61.253906 145.753906 L 67.765625 140.082031 L 71.230469 134.621094 L 125.933594 129.792969 L 129.191406 134.621094 L 132.65625 140.082031 L 136.960938 143.652344 L 143.785156 145.960938 L 137.695312 138.925781 L 142 126.957031 L 148.613281 116.246094 L 154.496094 100.8125 L 150.191406 79.496094 L 142.316406 56.710938 Z M 59.679688 152.578125 L 54.011719 145.648438 L 49.914062 138.191406 L 48.023438 130.527344 L 47.710938 137.246094 L 50.230469 144.28125 L 51.910156 147.328125 Z M 47.921875 115.828125 L 46.34375 124.4375 L 47.921875 130.527344 L 51.070312 120.34375 Z M 52.015625 164.96875 L 52.855469 161.816406 L 60.308594 162.972656 L 54.011719 157.828125 L 48.65625 149.53125 L 47.921875 148.796875 L 47.921875 148.902344 L 50.441406 154.992188 L 48.863281 162.972656 L 55.585938 173.472656 L 56.53125 170.847656 Z M 63.878906 173.367188 L 68.710938 168.539062 L 69.65625 162.132812 L 67.765625 158.351562 L 71.230469 151.632812 L 70.285156 143.96875 L 69.234375 142.390625 L 67.554688 146.488281 L 68.183594 153.628906 L 65.453125 158.140625 L 62.515625 160.347656 L 65.664062 161.921875 L 65.875 165.914062 L 64.929688 169.691406 Z M 133.703125 161.082031 L 139.585938 163.289062 L 135.28125 157.40625 L 132.761719 150.476562 L 135.488281 143.546875 L 133.496094 139.03125 C 133.496094 139.03125 133.074219 139.242188 132.445312 139.664062 L 132.761719 140.1875 L 130.238281 144.074219 L 129.296875 151.738281 L 132.863281 158.457031 L 130.976562 162.34375 L 131.921875 168.746094 L 136.75 173.578125 L 133.808594 167.90625 Z M 144.941406 173.683594 L 151.660156 163.183594 L 150.085938 155.203125 L 152.605469 149.113281 L 150.398438 144.28125 L 152.921875 137.246094 L 152.605469 130.527344 L 154.179688 124.4375 L 152.605469 115.828125 L 150.085938 121.289062 L 150.714844 130.003906 L 145.570312 136.933594 L 148.929688 136.300781 L 148.929688 143.234375 L 146.621094 145.542969 L 149.140625 147.117188 L 149.769531 150.476562 L 145.046875 155.621094 L 141.894531 157.933594 L 148.40625 158.878906 L 148.824219 163.8125 L 146.621094 168.539062 Z M 144.941406 173.683594 "/>
<path style=" stroke:none;fill-rule:nonzero;fill:rgb(22.745098%,20.784314%,22.745098%);fill-opacity:1;" d="M 141.160156 150.6875 L 146.304688 146.59375 L 147.878906 148.484375 L 142.734375 154.152344 Z M 139.796875 137.039062 L 144.625 143.234375 L 147.144531 141.550781 L 142.523438 135.882812 Z M 140.84375 134.832031 C 141.683594 134.308594 148.511719 130.949219 148.511719 130.421875 L 148.511719 124.226562 L 147.144531 123.074219 Z M 53.273438 124.226562 C 52.960938 124.960938 50.546875 130.527344 50.546875 130.527344 L 53.90625 139.242188 L 59.679688 146.382812 L 60.730469 140.1875 L 57.476562 130.632812 Z M 60.203125 159.085938 L 64.300781 156.148438 L 67.03125 152.050781 L 65.140625 146.59375 L 62.09375 149.007812 L 60.203125 154.46875 Z M 50.125 149.847656 L 51.28125 148.273438 L 55.164062 151.738281 L 58.421875 155.621094 L 59.15625 158.984375 L 54.535156 155.414062 Z M 50.125 149.847656 "/>
<path style=" stroke:none;fill-rule:nonzero;fill:rgb(95.294118%,83.137255%,81.176471%);fill-opacity:1;" d="M 171.609375 203.609375 L 166.78125 188.699219 L 130.136719 174.628906 L 118.796875 164.441406 L 117.324219 111.417969 L 82.675781 111.417969 L 81.203125 164.441406 L 69.863281 174.628906 L 33.21875 188.699219 L 28.390625 203.609375 L 25.238281 224.609375 L 174.761719 224.609375 Z M 171.609375 203.609375 "/>
<path style=" stroke:none;fill-rule:nonzero;fill:rgb(83.137255%,58.431373%,54.117647%);fill-opacity:1;" d="M 82.675781 111.417969 L 81.203125 164.441406 L 69.863281 174.628906 L 33.21875 188.699219 L 28.390625 203.609375 L 25.238281 224.609375 L 35.949219 224.609375 L 35.949219 203.609375 L 37.734375 189.640625 L 71.441406 176.097656 L 86.246094 166.121094 L 88.34375 111.417969 Z M 82.675781 111.417969 "/>
<path style=" stroke:none;fill-rule:nonzero;fill:rgb(77.254902%,47.45098%,42.745098%);fill-opacity:1;" d="M 106.40625 157.40625 L 118.269531 148.378906 L 117.324219 111.417969 L 82.675781 111.417969 L 81.519531 152.683594 L 87.820312 157.40625 L 91.179688 162.34375 L 97.058594 161.710938 L 103.046875 162.34375 Z M 106.40625 157.40625 "/>
<path style=" stroke:none;fill-rule:nonzero;fill:rgb(26.27451%,16.078431%,31.372549%);fill-opacity:1;" d="M 172.34375 203.609375 L 168.984375 186.808594 L 132.234375 174.835938 L 125.09375 169.796875 L 124.988281 168.222656 L 118.691406 158.984375 L 118.691406 162.65625 L 117.953125 175.46875 L 112.074219 183.761719 L 105.25 185.757812 L 103.570312 191.742188 L 101.996094 194.789062 L 96.21875 185.023438 L 88.136719 183.761719 L 83.621094 176.097656 L 81.203125 162.34375 L 81.308594 158.984375 L 75.011719 168.222656 L 74.90625 169.796875 L 67.660156 174.835938 L 31.015625 186.808594 L 27.550781 203.609375 L 25.03125 224.609375 L 174.863281 224.609375 Z M 172.34375 203.609375 "/>
<path style=" stroke:none;fill-rule:nonzero;fill:rgb(20.392157%,10.588235%,25.490196%);fill-opacity:1;" d="M 40.148438 204.34375 L 42.878906 193.003906 L 68.289062 182.921875 L 73.644531 179.5625 L 73.960938 177.460938 L 82.675781 171.476562 L 82.78125 171.476562 L 81.308594 162.34375 L 81.308594 158.984375 L 75.011719 168.222656 L 74.90625 169.796875 L 67.660156 174.835938 L 31.015625 186.808594 L 27.550781 203.609375 L 25.03125 224.609375 L 39.941406 224.609375 Z M 40.148438 204.34375 "/>
<path style=" stroke:none;fill-rule:nonzero;fill:rgb(14.901961%,5.882353%,19.215686%);fill-opacity:1;" d="M 125.09375 169.796875 L 127.089844 189.957031 L 128.035156 199.09375 L 119.109375 191.007812 L 115.121094 185.441406 L 111.863281 183.761719 L 114.910156 187.332031 L 109.976562 190.0625 L 103.886719 191.636719 L 109.238281 191.007812 L 102.625 203.398438 L 102.625 224.609375 L 103.886719 224.609375 L 103.253906 203.816406 L 109.238281 191.21875 L 109.976562 191.113281 L 115.328125 188.171875 L 118.585938 192.898438 L 128.769531 201.402344 L 127.511719 188.382812 Z M 99.789062 200.984375 L 101.996094 194.789062 L 99.371094 200.039062 L 94.75 190.902344 L 85.195312 187.332031 L 88.136719 183.867188 L 84.878906 185.546875 L 80.890625 191.113281 L 71.964844 199.199219 L 72.910156 190.0625 L 74.90625 169.902344 L 72.28125 188.488281 L 71.019531 201.507812 L 81.203125 193.003906 L 84.671875 187.859375 L 85.089844 187.332031 L 94.015625 191.847656 L 98.636719 200.878906 L 97.691406 201.613281 L 98.53125 224.609375 L 99.683594 224.609375 L 98.636719 202.558594 Z M 107.769531 187.542969 L 106.613281 186.703125 L 105.878906 188.171875 L 106.929688 189.222656 Z M 100.628906 201.507812 L 101.679688 202.558594 L 102.414062 200.773438 L 101.261719 199.933594 Z M 100.105469 221.039062 L 101.15625 222.085938 L 101.890625 220.300781 L 100.734375 219.460938 Z M 43.71875 191.324219 L 48.863281 209.382812 L 49.808594 224.609375 L 50.859375 224.609375 L 50.019531 209.277344 Z M 157.015625 207.597656 L 156.070312 224.609375 L 157.539062 224.609375 L 158.273438 207.808594 L 163.628906 191.847656 Z M 157.015625 207.597656 "/>
<path style=" stroke:none;fill-rule:nonzero;fill:rgb(32.54902%,22.745098%,37.254902%);fill-opacity:1;" d="M 120.578125 164.234375 L 119.738281 162.761719 L 119.738281 176.414062 L 115.644531 184.8125 L 119.320312 189.640625 C 119.320312 189.640625 121.105469 177.988281 121.105469 177.253906 C 121.105469 176.515625 120.578125 164.234375 120.578125 164.234375 Z M 79.945312 164.335938 L 80.363281 161.921875 L 79 164.546875 L 79.945312 178.617188 L 81.625 188.59375 L 84.460938 184.078125 L 81.414062 177.671875 Z M 79.945312 164.335938 "/>
<path style=" stroke:none;fill-rule:nonzero;fill:rgb(95.294118%,83.137255%,81.176471%);fill-opacity:1;" d="M 62.304688 89.996094 C 62.304688 89.996094 56.003906 89.261719 51.175781 86.113281 C 51.175781 86.113281 47.5 95.984375 46.976562 101.234375 C 46.976562 101.234375 54.011719 114.882812 57.476562 120.65625 C 57.476562 120.65625 62.933594 119.921875 64.089844 119.1875 L 65.558594 110.367188 Z M 62.304688 89.996094 "/>
<path style=" stroke:none;fill-rule:nonzero;fill:rgb(89.411765%,70.196078%,67.058824%);fill-opacity:1;" d="M 52.015625 88.109375 C 51.804688 87.6875 51.175781 86.113281 51.175781 86.113281 C 56.636719 86.53125 62.410156 87.582031 62.410156 87.582031 L 65.558594 110.367188 L 64.089844 119.1875 C 62.933594 119.921875 57.476562 120.65625 57.476562 120.65625 C 56.84375 119.609375 56.109375 118.136719 55.269531 116.773438 L 58 117.824219 L 61.148438 116.140625 C 61.148438 116.140625 61.886719 104.382812 61.675781 104.066406 C 61.570312 103.753906 52.226562 88.527344 52.015625 88.109375 Z M 52.015625 88.109375 "/>
<path style=" stroke:none;fill-rule:nonzero;fill:rgb(83.137255%,58.431373%,54.117647%);fill-opacity:1;" d="M 48.863281 99.550781 L 51.804688 93.777344 L 57.265625 100.917969 L 59.574219 110.890625 L 58.105469 112.886719 L 53.589844 104.90625 L 54.640625 99.972656 L 51.910156 95.773438 Z M 48.863281 99.550781 "/>
<path style=" stroke:none;fill-rule:nonzero;fill:rgb(95.294118%,83.137255%,81.176471%);fill-opacity:1;" d="M 137.695312 89.996094 C 137.695312 89.996094 143.996094 89.261719 148.824219 86.113281 C 148.824219 86.113281 152.5 95.984375 153.023438 101.234375 C 153.023438 101.234375 145.988281 114.882812 142.523438 120.65625 C 142.523438 120.65625 137.066406 119.921875 135.910156 119.1875 L 134.441406 110.367188 Z M 137.695312 89.996094 "/>
<path style=" stroke:none;fill-rule:nonzero;fill:rgb(89.411765%,70.196078%,67.058824%);fill-opacity:1;" d="M 147.984375 88.109375 C 148.195312 87.6875 148.824219 86.113281 148.824219 86.113281 C 143.363281 86.53125 137.589844 87.582031 137.589844 87.582031 L 134.441406 110.398438 L 135.910156 119.1875 C 137.066406 119.921875 142.523438 120.65625 142.523438 120.65625 C 143.15625 119.609375 143.890625 118.136719 144.730469 116.773438 L 142 117.824219 L 138.851562 116.140625 C 138.851562 116.140625 138.113281 104.382812 138.324219 104.066406 C 138.429688 103.753906 147.773438 88.527344 147.984375 88.109375 Z M 147.984375 88.109375 "/>
<path style=" stroke:none;fill-rule:nonzero;fill:rgb(83.137255%,58.431373%,54.117647%);fill-opacity:1;" d="M 151.136719 99.550781 L 148.195312 93.777344 L 142.734375 100.917969 L 140.425781 110.890625 L 141.894531 112.886719 L 146.410156 104.90625 L 145.359375 99.972656 L 148.089844 95.773438 Z M 151.136719 99.550781 "/>
<path style=" stroke:none;fill-rule:nonzero;fill:rgb(95.294118%,83.137255%,81.176471%);fill-opacity:1;" d="M 144.101562 82.859375 C 143.890625 72.460938 138.640625 57.761719 138.640625 57.761719 C 131.605469 46.003906 118.691406 37.917969 118.691406 37.917969 C 111.339844 36.34375 100 35.609375 100 35.609375 C 100 35.609375 88.660156 36.449219 81.308594 37.917969 C 81.308594 37.917969 68.289062 45.898438 61.359375 57.761719 C 61.359375 57.761719 56.109375 72.460938 55.898438 82.859375 C 55.691406 86.53125 58.628906 111.3125 58.628906 111.3125 C 59.996094 118.558594 70.496094 134.9375 70.496094 134.9375 L 90.761719 150.164062 L 94.015625 155.097656 L 100 154.46875 L 105.984375 155.097656 L 109.238281 150.164062 L 129.503906 134.9375 C 129.503906 134.9375 140.003906 118.558594 141.371094 111.3125 C 141.371094 111.3125 144.308594 86.53125 144.101562 82.859375 Z M 144.101562 82.859375 "/>
<path style=" stroke:none;fill-rule:nonzero;fill:rgb(92.156863%,76.470588%,74.117647%);fill-opacity:1;" d="M 99.683594 150.371094 L 99.683594 147.222656 L 102.101562 146.488281 Z M 99.683594 150.371094 "/>
<path style=" stroke:none;fill-rule:nonzero;fill:rgb(83.137255%,58.431373%,54.117647%);fill-opacity:1;" d="M 82.359375 40.226562 L 100 37.078125 L 118.691406 37.917969 C 111.339844 36.34375 100 35.609375 100 35.609375 C 100 35.609375 88.660156 36.449219 81.308594 37.917969 C 81.308594 37.917969 68.289062 45.898438 61.359375 57.761719 C 61.359375 57.761719 56.109375 72.460938 55.898438 82.859375 C 55.691406 86.53125 58.628906 111.3125 58.628906 111.3125 C 59.996094 118.558594 70.496094 134.9375 70.496094 134.9375 L 90.761719 150.164062 L 94.015625 155.097656 L 100 154.46875 L 105.984375 155.097656 L 109.238281 150.164062 L 105.25 154.046875 L 99.894531 153.523438 L 94.855469 153.734375 L 91.703125 148.378906 L 72.59375 132.628906 L 62.410156 111.101562 C 60.941406 105.539062 59.46875 82.015625 59.46875 82.015625 C 59.996094 74.984375 64.300781 59.023438 64.300781 59.023438 C 66.925781 54.71875 82.359375 40.226562 82.359375 40.226562 Z M 82.359375 40.226562 "/>
<path style=" stroke:none;fill-rule:nonzero;fill:rgb(85.490196%,48.627451%,52.941176%);fill-opacity:1;" d="M 86.414062 132.964844 L 95.179688 138.65625 L 106.320312 138.71875 L 114.554688 133.109375 L 100.988281 132.964844 L 91.546875 132.765625 Z M 86.414062 132.964844 "/>
<path style=" stroke:none;fill-rule:nonzero;fill:rgb(79.607843%,37.254902%,42.352941%);fill-opacity:1;" d="M 85.078125 133.070312 L 96.019531 133.574219 L 100.484375 135.703125 L 104.335938 133.371094 L 115.898438 133.214844 L 104.117188 130.421875 L 100.210938 132.25 L 95.738281 130.578125 Z M 85.078125 133.070312 "/>
<path style=" stroke:none;fill-rule:nonzero;fill:rgb(97.647059%,74.901961%,77.647059%);fill-opacity:1;" d="M 112.222656 133.910156 L 106.070312 138.191406 L 101.238281 138.222656 L 105.890625 137.824219 Z M 112.222656 133.910156 "/>
<path style=" stroke:none;fill-rule:nonzero;fill:rgb(88.627451%,54.901961%,58.823529%);fill-opacity:1;" d="M 100.535156 132.628906 C 100.535156 132.628906 104.054688 130.863281 104.179688 130.863281 C 104.304688 130.863281 109.890625 132.34375 109.890625 132.34375 L 104.222656 131.261719 Z M 100.535156 132.628906 "/>
<path style=" stroke:none;fill-rule:nonzero;fill:rgb(100%,100%,100%);fill-opacity:1;" d="M 90.65625 103.226562 L 88.03125 96.085938 L 76.585938 92.832031 L 69.023438 95.039062 L 74.800781 103.542969 Z M 90.65625 103.226562 "/>
<path style=" stroke:none;fill-rule:nonzero;fill:rgb(7.45098%,7.843137%,9.411765%);fill-opacity:1;" d="M 81.71875 103.363281 L 76.511719 101.453125 L 75.554688 95.984375 L 79.820312 92.421875 L 85.027344 94.335938 L 85.984375 99.804688 Z M 81.71875 103.363281 "/>
<path style=" stroke:none;fill-rule:nonzero;fill:rgb(0%,0%,0%);fill-opacity:1;" d="M 77.929688 98.816406 L 78.546875 95.898438 L 81.394531 94.972656 L 83.609375 96.96875 L 82.988281 99.886719 L 80.144531 100.8125 Z M 77.929688 98.816406 "/>
<path style=" stroke:none;fill-rule:nonzero;fill:rgb(100%,100%,100%);fill-opacity:1;" d="M 77.824219 95.332031 L 79.882812 97.304688 L 80.460938 96.894531 L 79.304688 94.34375 Z M 77.824219 95.332031 "/>
<path style=" stroke:none;fill-rule:nonzero;fill:rgb(100%,100%,100%);fill-opacity:1;" d="M 81.613281 99.785156 L 82.109375 100.6875 L 82.925781 100.359375 L 82.515625 99.363281 Z M 81.613281 99.785156 "/>
<path style=" stroke:none;fill-rule:nonzero;fill:rgb(95.294118%,83.137255%,81.176471%);fill-opacity:1;" d="M 66.398438 92.832031 L 66.398438 104.488281 L 74.484375 112.78125 L 85.929688 112.78125 L 94.015625 104.488281 L 94.015625 92.832031 L 85.929688 84.539062 L 74.484375 84.539062 Z M 69.023438 95.039062 L 76.480469 92.832031 L 88.03125 96.085938 L 90.65625 103.226562 L 74.800781 103.542969 Z M 69.023438 95.039062 "/>
<path style=" stroke:none;fill-rule:nonzero;fill:rgb(83.137255%,58.431373%,54.117647%);fill-opacity:1;" d="M 69.96875 95.351562 L 75.113281 103.4375 L 82.675781 103.332031 L 74.800781 103.753906 L 68.605469 95.457031 Z M 69.96875 95.351562 "/>
<path style=" stroke:none;fill-rule:nonzero;fill:rgb(0%,0%,0%);fill-opacity:1;" d="M 91.496094 104.800781 L 88.871094 95.351562 L 77.320312 90.523438 L 63.25 93.042969 L 67.554688 95.773438 L 70.179688 95.773438 L 77.53125 93.148438 L 87.925781 96.191406 L 90.234375 103.121094 Z M 91.496094 104.800781 "/>
<path style=" stroke:none;fill-rule:nonzero;fill:rgb(100%,100%,100%);fill-opacity:1;" d="M 109.34375 103.226562 L 111.96875 96.085938 L 123.414062 92.832031 L 130.976562 95.039062 L 125.199219 103.542969 Z M 109.34375 103.226562 "/>
<path style=" stroke:none;fill-rule:nonzero;fill:rgb(7.45098%,7.843137%,9.411765%);fill-opacity:1;" d="M 120.179688 103.363281 L 114.972656 101.453125 L 114.015625 95.984375 L 118.28125 92.421875 L 123.488281 94.335938 L 124.445312 99.804688 Z M 120.179688 103.363281 "/>
<path style=" stroke:none;fill-rule:nonzero;fill:rgb(0%,0%,0%);fill-opacity:1;" d="M 116.390625 98.816406 L 117.011719 95.898438 L 119.855469 94.972656 L 122.070312 96.96875 L 121.453125 99.886719 L 118.605469 100.8125 Z M 116.390625 98.816406 "/>
<path style=" stroke:none;fill-rule:nonzero;fill:rgb(100%,100%,100%);fill-opacity:1;" d="M 116.285156 95.332031 L 118.34375 97.304688 L 118.921875 96.894531 L 117.765625 94.34375 Z M 116.285156 95.332031 "/>
<path style=" stroke:none;fill-rule:nonzero;fill:rgb(100%,100%,100%);fill-opacity:1;" d="M 120.074219 99.785156 L 120.570312 100.6875 L 121.386719 100.359375 L 120.980469 99.363281 Z M 120.074219 99.785156 "/>
<path style=" stroke:none;fill-rule:nonzero;fill:rgb(95.294118%,83.137255%,81.176471%);fill-opacity:1;" d="M 125.515625 84.539062 L 114.070312 84.539062 L 105.984375 92.832031 L 105.984375 104.488281 L 114.070312 112.78125 L 125.515625 112.78125 L 133.601562 104.488281 L 133.601562 92.832031 Z M 125.199219 103.542969 L 109.34375 103.226562 L 111.96875 96.085938 L 123.519531 92.832031 L 130.976562 95.039062 Z M 125.199219 103.542969 "/>
<path style=" stroke:none;fill-rule:nonzero;fill:rgb(83.137255%,58.431373%,54.117647%);fill-opacity:1;" d="M 130.03125 95.351562 L 124.886719 103.4375 L 117.324219 103.332031 L 125.199219 103.753906 L 131.394531 95.457031 Z M 130.03125 95.351562 "/>
<path style=" stroke:none;fill-rule:nonzero;fill:rgb(0%,0%,0%);fill-opacity:1;" d="M 108.503906 104.800781 L 111.128906 95.351562 L 122.679688 90.523438 L 136.75 93.042969 L 132.445312 95.773438 L 129.820312 95.773438 L 122.46875 93.148438 L 112.074219 96.191406 L 109.765625 103.121094 Z M 108.503906 104.800781 "/>
<path style=" stroke:none;fill-rule:nonzero;fill:rgb(16.470588%,13.72549%,16.862745%);fill-opacity:1;" d="M 93.257812 89.882812 L 91.335938 91.226562 L 86.339844 86.46875 L 78.074219 83.886719 L 67.15625 86.964844 L 64.070312 89.808594 L 67.238281 85.964844 L 78.160156 82.710938 L 88.082031 85.136719 Z M 93.257812 89.882812 "/>
<path style=" stroke:none;fill-rule:nonzero;fill:rgb(16.470588%,13.72549%,16.862745%);fill-opacity:1;" d="M 106.742188 89.882812 L 108.664062 91.226562 L 113.660156 86.46875 L 121.925781 83.886719 L 132.84375 86.964844 L 135.929688 89.808594 L 132.761719 85.964844 L 121.839844 82.710938 L 111.917969 85.136719 Z M 106.742188 89.882812 "/>
<path style=" stroke:none;fill-rule:nonzero;fill:rgb(83.137255%,58.431373%,54.117647%);fill-opacity:1;" d="M 105.828125 111.804688 L 109.304688 119.144531 L 107.769531 121.980469 L 105.113281 121.769531 L 105.3125 121.351562 L 108.074219 120.40625 L 104.703125 120.617188 L 102.046875 124.289062 L 97.964844 124.289062 L 95.316406 120.617188 L 91.945312 120.40625 L 94.699219 121.351562 L 94.90625 121.769531 L 92.25 121.980469 L 90.71875 119.144531 L 94.195312 111.804688 L 89.898438 119.25 L 91.945312 122.925781 L 95.820312 122.402344 L 97.761719 125.027344 L 102.257812 125.027344 L 104.191406 122.402344 L 108.074219 122.925781 L 110.113281 119.25 Z M 105.828125 111.804688 "/>
<path style=" stroke:none;fill-rule:nonzero;fill:rgb(83.137255%,58.431373%,54.117647%);fill-opacity:1;" d="M 93.238281 114.734375 L 95.914062 119.136719 L 103.160156 119.25 L 95.851562 119.722656 Z M 93.238281 114.734375 "/>
<path style=" stroke:none;fill-rule:nonzero;fill:rgb(98.431373%,89.803922%,88.627451%);fill-opacity:1;" d="M 95.378906 113.246094 L 97.40625 117.886719 L 103.246094 118.0625 L 104.828125 113.011719 Z M 95.378906 113.246094 "/>
<path style=" stroke:none;fill-rule:nonzero;fill:rgb(19.607843%,17.254902%,20%);fill-opacity:1;" d="M 85.195312 55.765625 L 89.921875 61.226562 L 109.34375 70.992188 L 130.765625 74.984375 L 138.953125 90.417969 L 141.894531 111.628906 L 146.828125 82.015625 L 142.210938 56.710938 L 127.089844 38.335938 L 106.089844 31.09375 L 90.023438 33.402344 L 84.144531 36.34375 L 75.429688 36.027344 L 61.78125 46.84375 L 53.800781 63.117188 L 52.015625 84.328125 L 56.109375 97.136719 C 56.109375 97.136719 58.316406 114.566406 58.628906 113.726562 C 58.945312 112.886719 61.675781 90.628906 61.675781 90.628906 L 63.773438 79.496094 L 71.230469 71.308594 L 80.890625 62.90625 Z M 85.195312 55.765625 "/>
<path style=" stroke:none;fill-rule:nonzero;fill:rgb(16.470588%,13.72549%,16.862745%);fill-opacity:1;" d="M 48.863281 163.183594 L 55.585938 173.683594 L 63.878906 173.367188 L 68.710938 168.539062 L 69.65625 162.132812 L 67.765625 158.351562 L 71.230469 151.632812 L 70.496094 145.753906 L 59.679688 149.425781 L 50.125 144.175781 L 47.921875 149.007812 L 50.441406 155.097656 Z M 149.980469 155.097656 L 152.5 149.007812 L 150.296875 144.175781 L 139.058594 147.433594 L 129.925781 145.859375 L 129.191406 151.421875 L 132.65625 158.140625 L 130.765625 161.921875 L 131.710938 168.328125 L 136.539062 173.15625 L 144.835938 173.472656 L 151.554688 162.972656 Z M 55.585938 173.683594 L 51.910156 178.511719 L 50.964844 189.851562 L 57.054688 204.132812 L 66.398438 210.746094 L 61.988281 200.457031 L 65.875 192.371094 L 65.558594 196.152344 L 69.445312 186.914062 L 66.398438 177.566406 L 63.984375 173.367188 L 60.101562 172.003906 Z M 136.539062 173.367188 L 132.339844 179.5625 L 131.921875 192.476562 L 138.535156 201.824219 L 141.160156 210.746094 L 147.144531 198.359375 L 147.144531 192.476562 L 149.035156 193.738281 L 149.246094 181.136719 L 144.941406 173.789062 L 140.738281 171.265625 Z M 136.539062 173.367188 "/>
<path style=" stroke:none;fill-rule:nonzero;fill:rgb(10.588235%,7.843137%,10.980392%);fill-opacity:1;" d="M 59.679688 152.578125 L 54.011719 145.648438 L 49.914062 138.191406 L 48.023438 130.527344 L 47.710938 137.246094 L 50.230469 144.28125 L 51.910156 147.328125 Z M 52.015625 164.96875 L 52.855469 161.816406 L 60.308594 162.972656 L 54.011719 157.828125 L 48.65625 149.53125 L 47.921875 148.796875 L 47.921875 148.902344 L 50.441406 154.992188 L 48.863281 162.972656 L 55.585938 173.472656 L 56.53125 170.847656 Z M 63.878906 173.367188 L 68.710938 168.539062 L 69.65625 162.132812 L 67.765625 158.351562 L 71.230469 151.632812 L 70.074219 145.648438 L 69.234375 144.597656 L 67.554688 146.382812 L 68.183594 153.523438 L 65.453125 158.039062 L 62.515625 160.242188 L 65.664062 161.816406 L 65.875 165.808594 L 64.929688 169.585938 Z M 146.515625 145.542969 L 149.035156 147.117188 L 149.664062 150.476562 L 144.941406 155.621094 L 141.789062 157.933594 L 148.300781 158.878906 L 148.71875 163.8125 L 146.515625 168.539062 L 144.941406 173.683594 L 151.660156 163.183594 L 150.085938 155.203125 L 152.605469 149.113281 L 150.398438 144.28125 L 146.828125 145.226562 Z M 130.871094 162.132812 L 131.816406 168.539062 L 136.644531 173.367188 L 133.703125 167.699219 L 133.703125 160.976562 L 139.585938 163.183594 L 135.28125 157.300781 L 132.761719 150.371094 L 134.335938 146.382812 L 129.925781 145.960938 L 129.191406 151.527344 L 132.65625 158.246094 Z M 55.585938 173.683594 L 56.53125 171.058594 C 56.53125 171.058594 57.054688 174.941406 56.949219 175.363281 C 56.84375 175.78125 54.429688 183.027344 54.429688 183.027344 C 54.429688 183.027344 58.628906 203.082031 59.050781 203.398438 C 59.46875 203.710938 66.503906 210.539062 66.503906 210.539062 L 57.160156 203.921875 L 51.070312 189.640625 L 52.015625 178.300781 Z M 136.539062 173.367188 L 135.699219 180.613281 L 136.226562 192.371094 L 140.738281 200.039062 L 141.160156 210.640625 L 138.535156 201.71875 L 131.921875 192.371094 L 132.339844 179.457031 Z M 136.539062 173.367188 "/>
<path style=" stroke:none;fill-rule:nonzero;fill:rgb(22.745098%,20.784314%,22.745098%);fill-opacity:1;" d="M 60.203125 159.085938 L 64.300781 156.148438 L 67.03125 152.050781 L 65.140625 146.59375 L 62.09375 149.007812 L 60.203125 154.46875 Z M 50.125 149.847656 L 51.28125 148.273438 L 55.164062 151.738281 L 58.421875 155.621094 L 59.15625 158.984375 L 54.535156 155.414062 Z M 53.695312 165.914062 L 54.746094 163.390625 L 59.050781 164.546875 L 60.941406 169.167969 L 59.261719 170.847656 Z M 62.09375 165.914062 L 62.410156 162.65625 L 64.613281 164.023438 L 63.566406 166.015625 Z M 136.226562 145.542969 L 139.164062 152.578125 L 142.316406 160.976562 L 136.226562 155.726562 L 135.59375 149.847656 Z M 141.160156 150.6875 L 146.304688 146.59375 L 147.878906 148.484375 L 142.734375 154.152344 Z M 135.175781 166.121094 L 136.226562 163.078125 L 141.683594 168.539062 L 141.371094 171.058594 Z M 141.160156 164.546875 C 141.160156 164.546875 144.730469 159.085938 145.253906 159.402344 C 145.78125 159.71875 147.25 161.816406 147.25 161.816406 L 143.996094 166.121094 Z M 82.359375 48.207031 L 76.898438 61.226562 L 60.414062 76.976562 L 58.839844 99.972656 L 57.789062 75.613281 L 75.429688 60.492188 Z M 80.785156 45.476562 L 70.496094 56.816406 L 56.636719 73.933594 L 56.109375 87.476562 L 55.058594 71.726562 L 69.128906 55.453125 Z M 81.625 40.332031 L 71.859375 42.746094 L 61.886719 54.085938 L 56.425781 65.007812 L 64.300781 53.351562 L 73.226562 43.902344 Z M 85.929688 47.683594 L 93.804688 56.921875 L 112.808594 64.484375 L 134.964844 71.515625 L 141.476562 86.953125 L 142.523438 95.351562 L 142.839844 86.113281 L 137.378906 69.835938 L 114.070312 61.4375 L 95.378906 55.242188 Z M 86.140625 41.699219 L 109.136719 53.5625 L 135.910156 61.4375 L 142.421875 72.777344 L 137.800781 59.757812 L 109.660156 50.515625 Z M 89.394531 37.601562 L 112.390625 39.808594 L 129.398438 46.003906 L 137.800781 55.453125 L 128.035156 47.367188 L 111.023438 41.699219 Z M 60.414062 177.671875 L 58.316406 184.8125 L 59.890625 200.039062 L 61.988281 204.972656 L 60.835938 198.359375 L 65.246094 188.800781 L 66.925781 190.167969 L 65.875 181.136719 L 62.515625 177.148438 Z M 139.164062 178.40625 L 138.113281 185.234375 L 138.953125 193.632812 L 143.050781 200.667969 L 142 193.316406 L 144.203125 185.128906 L 144.835938 195.734375 L 145.886719 185.128906 L 147.25 188.488281 L 147.039062 180.824219 L 144.308594 177.460938 Z M 139.164062 178.40625 "/>
<path style=" stroke:none;fill-rule:nonzero;fill:rgb(0%,0%,0%);fill-opacity:1;" d="M 54.851562 174.207031 L 57.265625 175.046875 L 62.726562 175.152344 L 64.511719 174.523438 L 64.613281 172.632812 L 62.621094 173.050781 L 56.320312 172.738281 L 54.429688 172.210938 Z M 135.175781 172.109375 L 135.59375 174.523438 L 137.90625 175.363281 L 143.890625 175.257812 L 145.675781 174.835938 L 145.570312 172.527344 L 143.574219 172.84375 L 137.273438 172.84375 Z M 135.175781 172.109375 "/>
</g>
</svg>
