<?xml version="1.0" encoding="UTF-8"?>
<svg xmlns="http://www.w3.org/2000/svg" xmlns:xlink="http://www.w3.org/1999/xlink" width="200px" height="200px" viewBox="0 0 200 200" version="1.1">
<g id="surface1">
<path style=" stroke:none;fill-rule:nonzero;fill:rgb(94.117647%,78.039216%,69.411765%);fill-opacity:1;" d="M 170 180.300781 L 142.699219 173.398438 L 124.699219 163.5 L 123.199219 135.300781 L 76.800781 135.300781 L 75.300781 163.5 L 57.300781 173.398438 L 30 180.300781 L 20.898438 200 L 17.898438 220 L 182.101562 220 L 179.101562 200 Z M 170 180.300781 "/>
<path style=" stroke:none;fill-rule:nonzero;fill:rgb(81.960784%,57.254902%,44.313725%);fill-opacity:1;" d="M 76.800781 135.300781 L 75.300781 163.5 L 57.300781 173.398438 L 30 180.300781 L 20.898438 200 L 17.898438 220 L 32.5 220 L 32.5 200 L 35.199219 182.300781 L 59 175.898438 L 83.699219 167.601562 L 87.199219 135.300781 Z M 76.800781 135.300781 "/>
<path style=" stroke:none;fill-rule:nonzero;fill:rgb(76.078431%,48.235294%,33.333333%);fill-opacity:1;" d="M 121.5 149.101562 L 123.699219 145.300781 L 123.199219 135.300781 L 76.800781 135.300781 L 76 151.199219 L 89.800781 160.800781 L 104.601562 160.800781 Z M 121.5 149.101562 "/>
<path style=" stroke:none;fill-rule:nonzero;fill:rgb(81.960784%,57.254902%,44.313725%);fill-opacity:1;" d="M 92.800781 168.300781 L 94.800781 176.199219 L 101.699219 180.800781 C 101.699219 180.800781 93.199219 177.800781 93 177.199219 C 92.800781 176.601562 92.800781 168.300781 92.800781 168.300781 Z M 92.800781 168.300781 "/>
<path style=" stroke:none;fill-rule:nonzero;fill:rgb(96.862745%,96.862745%,96.862745%);fill-opacity:1;" d="M 127 164.398438 L 125.800781 162.300781 L 124.800781 157.300781 L 116.101562 167.398438 L 100 180.101562 L 83.898438 167.398438 L 75.199219 157.300781 L 74.199219 162.300781 L 73 164.398438 L 87.800781 220 L 112.199219 220 Z M 127 164.398438 "/>
<path style=" stroke:none;fill-rule:nonzero;fill:rgb(80.784314%,80.784314%,80.784314%);fill-opacity:1;" d="M 87.300781 186.5 L 81.5 195.199219 L 81.898438 196.601562 L 88.101562 187.601562 L 95.898438 181.101562 L 100 180 L 95.800781 180.398438 Z M 112.699219 186.5 L 104.300781 180.398438 L 100.101562 180 L 104.199219 181.101562 L 107.898438 184.398438 L 103.101562 194.699219 L 105.800781 219.898438 L 110 219.898438 L 107.800781 203.5 L 106.601562 196.300781 L 107.898438 193.5 L 111.398438 187.101562 L 112 187.601562 L 118.199219 196.601562 L 118.601562 195.199219 Z M 112.699219 186.5 "/>
<path style=" stroke:none;fill-rule:nonzero;fill:rgb(11.764706%,47.058824%,63.529412%);fill-opacity:1;" d="M 73.300781 163.699219 L 58.398438 170.800781 L 58.699219 171.699219 L 52.199219 173.199219 L 27.601562 179.398438 L 23.300781 178.898438 L 21.101562 181.5 L 16.398438 220 L 90.101562 220 L 78 179.398438 Z M 179 181.5 L 176.800781 178.898438 L 172.5 179.398438 L 147.898438 173.199219 L 141.398438 171.699219 L 141.699219 170.800781 L 126.800781 163.699219 L 122.101562 179.398438 L 109.898438 220 L 183.601562 220 Z M 179 181.5 "/>
<path style=" stroke:none;fill-rule:nonzero;fill:rgb(0%,35.294118%,51.372549%);fill-opacity:1;" d="M 32.199219 186.601562 L 27.898438 180.5 L 31.398438 187.5 L 34.800781 204.5 L 36.101562 220 L 35.898438 204 Z M 70.300781 169.601562 L 60.699219 174.199219 L 58.601562 171.699219 L 59.898438 174.5 L 56.199219 176.300781 L 75.601562 220 L 77.398438 220 L 58.199219 176.699219 Z M 21 181.5 L 16.398438 220 L 23 220 C 23.101562 215.800781 23.199219 206.898438 23.101562 206.101562 C 23 205.101562 24.5 182.898438 24.5 182.898438 L 26.800781 179.300781 L 23.398438 178.898438 Z M 167.800781 186.601562 L 164.199219 204 L 164.101562 219.898438 L 165.398438 204.398438 L 168.800781 187.398438 L 172.300781 180.398438 Z M 141.300781 171.699219 L 139.199219 174.199219 L 129.601562 169.601562 L 141.699219 176.699219 L 122.601562 220 L 124.398438 220 L 143.699219 176.300781 L 140 174.5 Z M 141.300781 171.699219 "/>
<path style=" stroke:none;fill-rule:nonzero;fill:rgb(13.333333%,13.333333%,13.333333%);fill-opacity:1;" d="M 103.699219 195.300781 L 108.601562 184.601562 L 104.199219 180.800781 L 100 180.101562 L 95.800781 180.800781 L 91.398438 184.601562 L 96.300781 195.300781 L 93.300781 205.5 L 92 220 L 108 220 L 106.699219 205.5 Z M 103.699219 195.300781 "/>
<path style=" stroke:none;fill-rule:nonzero;fill:rgb(0%,0%,0%);fill-opacity:1;" d="M 96.699219 195.300781 L 97.898438 195.398438 L 97.300781 201.601562 L 99 201.699219 L 98.699219 195.601562 L 100.398438 195.699219 L 100.101562 204 L 102.398438 204 L 101.398438 195.800781 L 103.199219 195.398438 L 99.300781 195.101562 Z M 96.699219 195.300781 "/>
<path style=" stroke:none;fill-rule:nonzero;fill:rgb(94.117647%,78.039216%,69.411765%);fill-opacity:1;" d="M 63.101562 91.800781 C 63.101562 91.800781 57.101562 91.101562 52.5 88.101562 C 52.5 88.101562 49 97.5 48.5 102.5 C 48.5 102.5 55.199219 115.5 58.5 121 C 58.5 121 63.699219 120.300781 64.800781 119.601562 L 66.199219 111.199219 Z M 63.101562 91.800781 "/>
<path style=" stroke:none;fill-rule:nonzero;fill:rgb(88.235294%,67.45098%,56.078431%);fill-opacity:1;" d="M 53.300781 90 C 53.101562 89.601562 52.5 88.101562 52.5 88.101562 C 57.699219 88.5 63.199219 89.5 63.199219 89.5 L 66.199219 111.101562 L 64.800781 119.5 C 63.699219 120.199219 58.5 120.898438 58.5 120.898438 C 57.898438 119.898438 57.199219 118.601562 56.398438 117.300781 L 59 118.300781 L 62 116.699219 C 62 116.699219 62.699219 105.5 62.5 105.199219 C 62.398438 104.898438 53.5 90.398438 53.300781 90 Z M 53.300781 90 "/>
<path style=" stroke:none;fill-rule:nonzero;fill:rgb(81.960784%,57.254902%,44.313725%);fill-opacity:1;" d="M 50.300781 100.898438 L 53.101562 95.398438 L 58.300781 102.199219 L 60.5 111.699219 L 59.101562 113.601562 L 54.800781 106 L 55.800781 101.300781 L 53.199219 97.300781 Z M 50.300781 100.898438 "/>
<path style=" stroke:none;fill-rule:nonzero;fill:rgb(94.117647%,78.039216%,69.411765%);fill-opacity:1;" d="M 136.898438 91.800781 C 136.898438 91.800781 142.898438 91.101562 147.5 88.101562 C 147.5 88.101562 151 97.5 151.5 102.5 C 151.5 102.5 144.800781 115.5 141.5 121 C 141.5 121 136.300781 120.300781 135.199219 119.601562 L 133.800781 111.199219 Z M 136.898438 91.800781 "/>
<path style=" stroke:none;fill-rule:nonzero;fill:rgb(88.235294%,67.45098%,56.078431%);fill-opacity:1;" d="M 146.699219 90 C 146.898438 89.601562 147.5 88.101562 147.5 88.101562 C 142.300781 88.5 136.800781 89.5 136.800781 89.5 L 133.800781 111.101562 L 135.199219 119.5 C 136.300781 120.199219 141.5 120.898438 141.5 120.898438 C 142.101562 119.898438 142.800781 118.601562 143.601562 117.300781 L 141 118.300781 L 138 116.699219 C 138 116.699219 137.300781 105.5 137.5 105.199219 C 137.601562 104.898438 146.5 90.398438 146.699219 90 Z M 146.699219 90 "/>
<path style=" stroke:none;fill-rule:nonzero;fill:rgb(81.960784%,57.254902%,44.313725%);fill-opacity:1;" d="M 149.699219 100.898438 L 146.898438 95.398438 L 141.699219 102.199219 L 139.5 111.699219 L 140.898438 113.601562 L 145.199219 106 L 144.199219 101.300781 L 146.800781 97.300781 Z M 149.699219 100.898438 "/>
<path style=" stroke:none;fill-rule:nonzero;fill:rgb(94.117647%,78.039216%,69.411765%);fill-opacity:1;" d="M 138.101562 60 C 131.199219 48.398438 118.398438 40.5 118.398438 40.5 C 111.199219 39 100 38.199219 100 38.199219 C 100 38.199219 88.898438 39 81.601562 40.5 C 81.601562 40.5 68.800781 48.398438 61.898438 60 C 61.898438 60 56.800781 74.5 56.601562 84.800781 L 61.5 118.699219 L 75.699219 143.5 L 92.601562 155.199219 L 107.5 155.199219 L 124.398438 143.5 L 138.601562 118.699219 L 143.5 84.800781 C 143.199219 74.5 138.101562 60 138.101562 60 Z M 138.101562 60 "/>
<path style=" stroke:none;fill-rule:nonzero;fill:rgb(81.960784%,57.254902%,44.313725%);fill-opacity:1;" d="M 92.699219 152.699219 L 78.101562 140.398438 C 78.101562 140.398438 66.699219 119.5 66.300781 118.699219 C 65.898438 117.800781 61.300781 84.398438 61.300781 84.398438 C 61.5 79.601562 65.800781 62.898438 66.300781 62.199219 C 68.398438 59 82.800781 44.199219 82.800781 44.199219 L 99.898438 40.101562 L 118.398438 40.5 C 111.199219 39 100 38.199219 100 38.199219 C 100 38.199219 88.898438 39 81.601562 40.5 C 81.601562 40.5 68.800781 48.398438 61.898438 60 C 61.898438 60 56.800781 74.5 56.601562 84.800781 L 61.5 118.699219 L 75.699219 143.5 L 92.601562 155.199219 L 107.5 155.199219 L 124.398438 143.5 L 106.398438 153.898438 Z M 92.699219 152.699219 "/>
<path style=" stroke:none;fill-rule:nonzero;fill:rgb(85.490196%,48.627451%,52.941176%);fill-opacity:1;" d="M 84.988281 127.5 L 87.738281 131.441406 L 100.109375 130.761719 L 112.558594 131.601562 L 115.578125 127.730469 L 111.851562 130.191406 L 105.039062 127.691406 L 100.109375 129.148438 L 95.539062 127.800781 L 87.839844 129.730469 Z M 84.988281 127.5 "/>
<path style=" stroke:none;fill-rule:nonzero;fill:rgb(81.960784%,57.254902%,44.313725%);fill-opacity:1;" d="M 89.121094 133.921875 L 90.269531 136.558594 L 100.320312 139.421875 L 111.148438 135.808594 L 100.261719 137.960938 L 90.851562 135.648438 Z M 89.121094 133.921875 "/>
<path style=" stroke:none;fill-rule:nonzero;fill:rgb(100%,100%,100%);fill-opacity:1;" d="M 91.199219 95.699219 L 86 91.101562 L 77 91.199219 L 70 95 C 70 95 75.800781 99.300781 77.199219 99.898438 L 86 99.5 Z M 91.199219 95.699219 "/>
<path style=" stroke:none;fill-rule:nonzero;fill:rgb(8.235294%,8.627451%,9.019608%);fill-opacity:1;" d="M 76.761719 97.53125 L 75.949219 93.578125 L 78.171875 90.210938 L 82.109375 89.398438 L 85.480469 91.621094 L 86.289062 95.570312 L 84.070312 98.929688 L 80.121094 99.738281 Z M 76.761719 97.53125 "/>
<path style=" stroke:none;fill-rule:nonzero;fill:rgb(0%,0%,0%);fill-opacity:1;" d="M 80 97.28125 L 78.410156 95.691406 L 78.410156 93.449219 L 80 91.871094 L 82.238281 91.871094 L 83.820312 93.449219 L 83.820312 95.691406 L 82.238281 97.28125 Z M 80 97.28125 "/>
<path style=" stroke:none;fill-rule:nonzero;fill:rgb(0%,0%,0%);fill-opacity:1;" d="M 85.710938 91.460938 L 82.160156 89.121094 L 78 89.96875 L 75.660156 93.519531 L 76.511719 97.679688 L 80.058594 100.019531 L 84.21875 99.171875 L 86.558594 95.621094 Z M 81.050781 97.449219 L 81.269531 99.238281 L 80.691406 99.359375 L 80.691406 97.449219 Z M 81.21875 97.449219 L 81.609375 97.449219 L 82.070312 99.070312 L 81.441406 99.199219 Z M 81.789062 97.449219 L 82.210938 97.449219 L 83.019531 98.878906 L 82.238281 99.039062 Z M 82.171875 97.101562 L 80.070312 97.101562 L 78.589844 95.621094 L 78.589844 93.519531 L 80.070312 92.039062 L 82.171875 92.039062 L 83.648438 93.519531 L 83.648438 95.621094 Z M 78.171875 98.140625 L 79.28125 96.800781 L 79.539062 97.058594 C 79.28125 97.578125 78.941406 98.261719 78.789062 98.550781 Z M 79.160156 96.679688 L 78.019531 98.039062 L 77.480469 97.691406 L 78.808594 96.339844 Z M 79.671875 97.191406 L 79.910156 97.429688 L 79.628906 99.101562 L 78.929688 98.640625 C 79.039062 98.441406 79.25 98.03125 79.671875 97.191406 Z M 76.78125 96.308594 L 76.601562 95.449219 L 78.238281 95.21875 L 78.238281 95.628906 Z M 78.238281 94.53125 L 76.390625 94.421875 L 76.269531 93.851562 L 78.238281 94.078125 Z M 78.238281 94.710938 L 78.238281 95.050781 L 76.570312 95.28125 L 76.429688 94.601562 Z M 78.351562 93.269531 L 76.71875 92.890625 L 77.429688 91.820312 L 78.839844 92.789062 Z M 78.078125 90.820312 C 78.25 91 78.648438 91.351562 79.53125 92.101562 L 78.960938 92.671875 L 77.519531 91.679688 Z M 80.808594 91.691406 C 80.75 91.308594 80.609375 90.449219 80.539062 89.988281 L 81.28125 89.839844 L 81.28125 91.691406 Z M 80.628906 91.691406 L 80.269531 91.691406 L 79.421875 90.21875 L 80.371094 90.019531 C 80.460938 90.621094 80.578125 91.351562 80.628906 91.691406 Z M 84 93.769531 L 85.578125 93.398438 L 85.71875 94.101562 L 84 94.21875 Z M 84 93.589844 L 84 93.378906 L 83.730469 93.109375 L 85.28125 91.910156 L 85.550781 93.238281 Z M 83.601562 92.980469 L 83.230469 92.609375 L 84.519531 91.300781 L 85.191406 91.738281 Z M 83.109375 92.488281 L 82.621094 92 L 83.351562 90.53125 L 84.371094 91.199219 Z M 82.488281 91.871094 L 82.320312 91.699219 L 82.050781 91.699219 L 82.28125 89.828125 L 83.210938 90.441406 Z M 83.191406 96.570312 L 84.441406 97.890625 L 84.050781 98.488281 L 82.828125 96.929688 Z M 83.320312 96.449219 L 83.558594 96.210938 L 85.050781 96.988281 L 84.550781 97.75 Z M 83.691406 96.078125 L 84 95.761719 L 84 95.648438 C 84.339844 95.738281 85.039062 95.941406 85.621094 96.109375 L 85.148438 96.828125 Z M 84 94.390625 L 85.761719 94.28125 L 85.890625 94.921875 L 84 94.839844 Z M 82.109375 89.710938 L 81.859375 91.691406 L 81.441406 91.691406 L 81.441406 89.800781 L 82.050781 89.671875 Z M 79.238281 90.261719 L 80.070312 91.691406 L 79.929688 91.691406 L 79.648438 91.96875 C 79.109375 91.5 78.398438 90.890625 78.179688 90.671875 L 78.328125 90.449219 Z M 76.609375 93.039062 L 78.238281 93.421875 L 78.238281 93.898438 L 76.238281 93.671875 L 76.230469 93.628906 Z M 76.808594 96.488281 L 78.28125 95.808594 L 78.691406 96.21875 L 77.339844 97.601562 L 77 97.371094 Z M 79.789062 99.210938 L 80.078125 97.449219 L 80.53125 97.449219 L 80.53125 99.390625 L 80.179688 99.460938 Z M 83.199219 98.839844 L 82.378906 97.378906 L 82.710938 97.050781 L 83.949219 98.640625 L 83.910156 98.699219 Z M 85.710938 95.960938 C 85.128906 95.789062 84.359375 95.570312 83.988281 95.46875 L 83.988281 95.011719 L 85.921875 95.078125 L 86.011719 95.511719 Z M 85.710938 95.960938 "/>
<path style=" stroke:none;fill-rule:nonzero;fill:rgb(100%,100%,100%);fill-opacity:1;" d="M 80.628906 91.910156 L 79.660156 91.621094 L 78.941406 92.320312 L 79.171875 93.289062 L 80.140625 93.578125 L 80.859375 92.878906 Z M 80.628906 91.910156 "/>
<path style=" stroke:none;fill-rule:nonzero;fill:rgb(100%,100%,100%);fill-opacity:1;" d="M 82.789062 96.109375 L 82.199219 95.769531 L 81.609375 96.109375 L 81.609375 96.789062 L 82.199219 97.128906 L 82.789062 96.789062 Z M 82.789062 96.109375 "/>
<path style=" stroke:none;fill-rule:nonzero;fill:rgb(94.117647%,78.039216%,69.411765%);fill-opacity:1;" d="M 67.101562 89.300781 L 67.101562 101.199219 L 75 109.601562 L 86.199219 109.601562 L 94.101562 101.199219 L 94.101562 89.300781 L 86.199219 80.898438 L 75 80.898438 Z M 70.101562 95 L 77.101562 91.199219 L 86.101562 91.101562 L 91.199219 95.699219 L 86 99.601562 L 77.199219 100 C 75.898438 99.199219 70.101562 95 70.101562 95 Z M 70.101562 95 "/>
<path style=" stroke:none;fill-rule:nonzero;fill:rgb(20.784314%,16.862745%,16.862745%);fill-opacity:1;" d="M 91.699219 96.101562 L 90.5 95.5 L 85.800781 91.398438 L 77 91.398438 L 69.800781 95.398438 L 68.800781 95.601562 L 76.699219 90.601562 L 86.300781 90.5 Z M 91.699219 96.101562 "/>
<path style=" stroke:none;fill-rule:nonzero;fill:rgb(88.235294%,67.45098%,56.078431%);fill-opacity:1;" d="M 90.800781 94 L 86.800781 89.898438 L 77 89.800781 L 68.898438 93.398438 L 77 90.300781 L 86.699219 90.300781 Z M 90.800781 94 "/>
<path style=" stroke:none;fill-rule:nonzero;fill:rgb(100%,100%,100%);fill-opacity:1;" d="M 108.800781 95.699219 L 113.898438 91.101562 L 122.898438 91.199219 L 129.898438 95 C 129.898438 95 124.101562 99.300781 122.699219 99.898438 L 113.898438 99.5 Z M 108.800781 95.699219 "/>
<path style=" stroke:none;fill-rule:nonzero;fill:rgb(8.235294%,8.627451%,9.019608%);fill-opacity:1;" d="M 114.519531 97.53125 L 113.710938 93.578125 L 115.929688 90.210938 L 119.878906 89.398438 L 123.238281 91.621094 L 124.050781 95.570312 L 121.828125 98.929688 L 117.890625 99.738281 Z M 114.519531 97.53125 "/>
<path style=" stroke:none;fill-rule:nonzero;fill:rgb(0%,0%,0%);fill-opacity:1;" d="M 117.761719 97.28125 L 116.179688 95.691406 L 116.179688 93.449219 L 117.761719 91.871094 L 120 91.871094 L 121.589844 93.449219 L 121.589844 95.691406 L 120 97.28125 Z M 117.761719 97.28125 "/>
<path style=" stroke:none;fill-rule:nonzero;fill:rgb(0%,0%,0%);fill-opacity:1;" d="M 123.46875 91.460938 L 119.921875 89.121094 L 115.761719 89.96875 L 113.421875 93.519531 L 114.269531 97.679688 L 117.820312 100.019531 L 121.980469 99.171875 L 124.320312 95.621094 Z M 118.808594 97.449219 L 119.03125 99.238281 L 118.449219 99.359375 L 118.449219 97.449219 Z M 118.988281 97.449219 L 119.378906 97.449219 L 119.839844 99.070312 L 119.210938 99.199219 Z M 119.558594 97.449219 L 119.980469 97.449219 L 120.789062 98.878906 L 120.011719 99.039062 Z M 119.929688 97.101562 L 117.828125 97.101562 L 116.351562 95.621094 L 116.351562 93.519531 L 117.828125 92.039062 L 119.929688 92.039062 L 121.410156 93.519531 L 121.410156 95.621094 Z M 115.929688 98.140625 L 117.039062 96.800781 L 117.300781 97.058594 C 117.039062 97.578125 116.699219 98.261719 116.550781 98.550781 Z M 116.921875 96.679688 L 115.78125 98.039062 L 115.238281 97.691406 L 116.570312 96.339844 Z M 117.429688 97.191406 L 117.671875 97.429688 L 117.390625 99.101562 L 116.691406 98.640625 C 116.808594 98.441406 117.011719 98.03125 117.429688 97.191406 Z M 114.539062 96.308594 L 114.359375 95.449219 L 116 95.21875 L 116 95.628906 Z M 116 94.53125 L 114.148438 94.421875 L 114.03125 93.851562 L 116 94.078125 Z M 116 94.710938 L 116 95.050781 L 114.328125 95.28125 L 114.191406 94.601562 Z M 116.109375 93.269531 L 114.480469 92.890625 L 115.191406 91.820312 L 116.601562 92.789062 Z M 115.839844 90.820312 C 116.011719 91 116.410156 91.351562 117.289062 92.101562 L 116.71875 92.671875 L 115.28125 91.679688 Z M 118.570312 91.691406 C 118.511719 91.308594 118.371094 90.449219 118.300781 89.988281 L 119.039062 89.839844 L 119.039062 91.691406 Z M 118.390625 91.691406 L 118.03125 91.691406 L 117.179688 90.21875 L 118.128906 90.019531 C 118.21875 90.621094 118.339844 91.351562 118.390625 91.691406 Z M 121.761719 93.769531 L 123.339844 93.398438 L 123.480469 94.101562 L 121.761719 94.210938 Z M 121.761719 93.589844 L 121.761719 93.378906 L 121.488281 93.109375 L 123.039062 91.910156 L 123.308594 93.238281 Z M 121.359375 92.980469 L 120.988281 92.609375 L 122.28125 91.300781 L 122.949219 91.738281 Z M 120.871094 92.488281 L 120.378906 92 L 121.109375 90.53125 L 122.128906 91.199219 Z M 120.25 91.871094 L 120.078125 91.699219 L 119.808594 91.699219 L 120.039062 89.828125 L 120.96875 90.441406 Z M 120.960938 96.570312 L 122.210938 97.890625 L 121.820312 98.488281 L 120.601562 96.929688 Z M 121.078125 96.449219 L 121.320312 96.210938 L 122.808594 96.988281 L 122.308594 97.75 Z M 121.449219 96.078125 L 121.761719 95.769531 L 121.761719 95.660156 C 122.101562 95.75 122.800781 95.949219 123.378906 96.121094 L 122.910156 96.839844 Z M 121.761719 94.390625 L 123.519531 94.28125 L 123.648438 94.921875 L 121.761719 94.851562 Z M 119.878906 89.710938 L 119.628906 91.691406 L 119.210938 91.691406 L 119.210938 89.800781 L 119.820312 89.671875 Z M 117 90.261719 L 117.828125 91.691406 L 117.691406 91.691406 L 117.410156 91.96875 C 116.871094 91.5 116.160156 90.890625 115.941406 90.671875 L 116.089844 90.449219 Z M 114.378906 93.039062 L 116.011719 93.421875 L 116.011719 93.898438 L 114.011719 93.671875 L 114 93.628906 Z M 114.570312 96.488281 L 116.039062 95.808594 L 116.449219 96.21875 L 115.101562 97.601562 L 114.761719 97.371094 Z M 117.550781 99.210938 L 117.839844 97.449219 L 118.289062 97.449219 L 118.289062 99.390625 L 117.941406 99.460938 Z M 120.960938 98.839844 L 120.140625 97.378906 L 120.46875 97.050781 L 121.710938 98.640625 L 121.671875 98.699219 Z M 123.480469 95.960938 C 122.898438 95.789062 122.128906 95.570312 121.761719 95.46875 L 121.761719 95.011719 L 123.691406 95.078125 L 123.78125 95.511719 Z M 123.480469 95.960938 "/>
<path style=" stroke:none;fill-rule:nonzero;fill:rgb(100%,100%,100%);fill-opacity:1;" d="M 118.390625 91.910156 L 117.429688 91.621094 L 116.699219 92.320312 L 116.941406 93.289062 L 117.898438 93.578125 L 118.628906 92.878906 Z M 118.390625 91.910156 "/>
<path style=" stroke:none;fill-rule:nonzero;fill:rgb(100%,100%,100%);fill-opacity:1;" d="M 120.550781 96.109375 L 119.960938 95.769531 L 119.371094 96.109375 L 119.371094 96.789062 L 119.960938 97.128906 L 120.550781 96.789062 Z M 120.550781 96.109375 "/>
<path style=" stroke:none;fill-rule:nonzero;fill:rgb(94.117647%,78.039216%,69.411765%);fill-opacity:1;" d="M 125 80.800781 L 113.800781 80.800781 L 105.898438 89.199219 L 105.898438 101.101562 L 113.800781 109.5 L 125 109.5 L 132.898438 101.101562 L 132.898438 89.300781 Z M 122.699219 99.898438 L 113.898438 99.5 L 108.800781 95.699219 L 113.898438 91.101562 L 122.898438 91.199219 L 129.898438 95 C 129.898438 95 124.101562 99.199219 122.699219 99.898438 Z M 122.699219 99.898438 "/>
<path style=" stroke:none;fill-rule:nonzero;fill:rgb(20.784314%,16.862745%,16.862745%);fill-opacity:1;" d="M 108.300781 96.101562 L 109.5 95.5 L 114.199219 91.398438 L 123 91.398438 L 130.199219 95.398438 L 131.199219 95.601562 L 123.300781 90.601562 L 113.699219 90.5 Z M 108.300781 96.101562 "/>
<path style=" stroke:none;fill-rule:nonzero;fill:rgb(88.235294%,67.45098%,56.078431%);fill-opacity:1;" d="M 109.199219 94 L 113.199219 89.898438 L 123 89.800781 L 131.101562 93.398438 L 123 90.300781 L 113.300781 90.300781 Z M 109.199219 94 "/>
<path style=" stroke:none;fill-rule:nonzero;fill:rgb(16.470588%,13.72549%,16.862745%);fill-opacity:1;" d="M 74.199219 77.601562 L 71 79 L 66 88 L 74.5 83.398438 L 91.800781 87.101562 L 92.699219 81.101562 Z M 74.199219 77.601562 "/>
<path style=" stroke:none;fill-rule:nonzero;fill:rgb(22.745098%,20.784314%,22.745098%);fill-opacity:1;" d="M 87.898438 84 L 86.699219 80 L 85 79.601562 Z M 73 78.199219 L 78.601562 82.800781 L 74.199219 77.601562 Z M 79.898438 78.699219 L 83.699219 83.699219 L 81.800781 79.101562 Z M 68.199219 84.101562 L 70.898438 82.601562 L 68.800781 83.101562 Z M 82.898438 79.300781 L 84.601562 81.199219 L 84.101562 79.5 Z M 70.5 80 L 74.300781 80.800781 L 71 79 Z M 87.101562 80.101562 L 90.601562 85.300781 L 89.199219 80.601562 Z M 87.101562 80.101562 "/>
<path style=" stroke:none;fill-rule:nonzero;fill:rgb(16.470588%,13.72549%,16.862745%);fill-opacity:1;" d="M 107.300781 81.101562 L 108.199219 87.101562 L 125.5 83.398438 L 134 88 L 129 79 L 125.800781 77.601562 Z M 107.300781 81.101562 "/>
<path style=" stroke:none;fill-rule:nonzero;fill:rgb(22.745098%,20.784314%,22.745098%);fill-opacity:1;" d="M 115 79.601562 L 113.300781 79.898438 L 112.101562 83.898438 Z M 125.800781 77.601562 L 121.398438 82.800781 L 127 78.199219 Z M 118.199219 79.101562 L 116.300781 83.699219 L 120.101562 78.699219 Z M 131.101562 83.101562 L 129 82.601562 L 131.699219 84.101562 Z M 115.898438 79.5 L 115.398438 81.199219 L 117.101562 79.300781 Z M 129 79 L 125.800781 80.800781 L 129.601562 80 Z M 110.800781 80.5 L 109.398438 85.199219 L 112.898438 80 Z M 110.800781 80.5 "/>
<path style=" stroke:none;fill-rule:nonzero;fill:rgb(94.117647%,78.039216%,69.411765%);fill-opacity:1;" d="M 102.25 119.738281 L 97.730469 119.78125 L 95.691406 117.070312 L 91.921875 117.539062 L 90.191406 114.199219 L 94.101562 106.738281 L 105.921875 106.738281 L 109.878906 114.28125 L 108.070312 117.621094 L 104.410156 116.839844 Z M 102.25 119.738281 "/>
<path style=" stroke:none;fill-rule:nonzero;fill:rgb(81.960784%,57.254902%,44.313725%);fill-opacity:1;" d="M 105.921875 106.738281 L 109.441406 114.191406 L 107.878906 117.070312 L 105.191406 116.859375 L 105.398438 116.429688 L 108.199219 115.46875 L 104.78125 115.679688 L 102.078125 119.410156 L 97.941406 119.410156 L 95.238281 115.679688 L 91.820312 115.46875 L 94.621094 116.429688 L 94.828125 116.859375 L 92.128906 117.070312 L 90.578125 114.191406 L 94.101562 106.738281 L 89.75 114.300781 L 91.820312 118.03125 L 95.761719 117.488281 L 97.730469 120.160156 L 102.289062 120.160156 L 104.261719 117.488281 L 108.199219 118.03125 L 110.269531 114.300781 Z M 105.921875 106.738281 "/>
<path style=" stroke:none;fill-rule:nonzero;fill:rgb(81.960784%,57.254902%,44.313725%);fill-opacity:1;" d="M 93.140625 109.710938 L 95.851562 114.179688 L 103.210938 114.300781 L 95.789062 114.78125 Z M 93.140625 109.710938 "/>
<path style=" stroke:none;fill-rule:nonzero;fill:rgb(97.254902%,83.529412%,76.470588%);fill-opacity:1;" d="M 95.308594 108.199219 L 97.371094 112.910156 L 103.289062 113.089844 L 104.898438 107.960938 Z M 95.308594 108.199219 "/>
<path style=" stroke:none;fill-rule:nonzero;fill:rgb(16.470588%,13.72549%,16.862745%);fill-opacity:1;" d="M 125.898438 59.800781 L 115.199219 71.101562 L 101.601562 77.101562 L 112.898438 67.898438 L 98.699219 76.898438 C 98.699219 76.898438 89.699219 79.800781 90.300781 79.601562 C 90.898438 79.398438 107.800781 66.398438 107.800781 66.398438 L 90.101562 76.300781 L 81.101562 78.800781 L 89.300781 72 L 102.398438 58.800781 L 90.699219 67.800781 L 82.5 75.601562 L 85.601562 69.199219 L 91.601562 63.398438 L 82.800781 69.199219 L 74 78.5 L 68.898438 89.800781 L 70.5 79.699219 L 77.300781 69 L 68.101562 80.5 L 66.898438 92 L 66.5 103.300781 L 62 89.300781 C 62 89.300781 62.398438 101.601562 62.800781 102.5 C 63.199219 103.5 65.898438 116.300781 65.898438 116.300781 L 60.398438 104.398438 L 61.800781 114.5 L 55.601562 99.898438 L 54.398438 89.199219 L 52.199219 92.601562 C 52.199219 92.601562 50.398438 72.699219 50.601562 72.101562 C 50.800781 71.5 56.199219 56.101562 56.199219 56.101562 L 53.300781 56.699219 L 60 48.300781 L 72.398438 38 L 66.601562 39 L 78.699219 33.300781 L 99.101562 29.800781 L 109.800781 31.398438 L 99.5 26.5 L 114.699219 30.800781 L 124.398438 37.300781 L 128.601562 43.398438 L 133.398438 44.5 L 144.300781 50.5 L 151.199219 63 L 146.699219 59.800781 L 150.699219 69.5 L 151.199219 88.300781 L 148.800781 82.898438 L 149.199219 88.101562 L 150.101562 94.898438 L 146.199219 89.800781 L 143.699219 95.300781 L 140.601562 106 L 141 91 L 140 77.898438 L 132.601562 69.101562 L 134.5 74 L 126.699219 64.800781 Z M 125.898438 59.800781 "/>
<path style=" stroke:none;fill-rule:nonzero;fill:rgb(19.607843%,17.254902%,20%);fill-opacity:1;" d="M 126.199219 52.601562 L 115.601562 64.398438 L 106.398438 69.300781 L 114.699219 60.699219 L 99.398438 68.699219 L 93.101562 70.699219 L 100.800781 65.601562 L 113.398438 52.398438 C 113.398438 52.398438 97.5 58.5 96.5 58.898438 C 95.5 59.300781 81.800781 68.101562 81.800781 68.101562 L 93.199219 57.5 L 74.5 67.800781 L 66.199219 78.601562 L 64.601562 86.101562 L 63.800781 76.699219 L 72.601562 64.699219 L 88.800781 54 L 72.898438 58.300781 L 63.5 66.5 L 72.5 53.300781 L 90.601562 46.601562 L 78.800781 45.398438 L 73.101562 46.601562 L 79.800781 43.5 L 99.398438 42.898438 L 92.898438 37.800781 L 83.300781 38 L 95.898438 35.601562 L 105.699219 37.800781 L 102.398438 33.699219 L 113.398438 37.398438 L 121.101562 43.300781 L 117.398438 37.199219 L 113.699219 33.898438 L 121.398438 37 L 127.898438 46 Z M 129.898438 46.699219 L 128.699219 54.199219 L 131.601562 62.199219 L 142.601562 75.601562 L 143.601562 87.199219 L 145.398438 75.199219 L 149.300781 79.699219 L 146.898438 70.898438 L 139.601562 59.898438 L 147.800781 66 L 140.101562 54.800781 L 144.601562 56.398438 L 140.898438 50.898438 Z M 129.898438 46.699219 "/>
<path style=" stroke:none;fill-rule:nonzero;fill:rgb(22.745098%,20.784314%,22.745098%);fill-opacity:1;" d="M 124.199219 50.398438 L 115.5 58.300781 L 106.101562 63.101562 L 115.5 55.699219 Z M 120 46.699219 L 107.300781 45.199219 L 86.601562 50.699219 C 86.601562 50.699219 106.898438 47 107.800781 47 C 108.699219 47 120 46.699219 120 46.699219 Z M 58.699219 95.800781 L 58.5 76.800781 L 62.601562 67.601562 L 56.5 76.300781 Z M 58.699219 95.800781 "/>
</g>
</svg>
